<svg version="1.0" xmlns="http://www.w3.org/2000/svg"
 width="512.000000pt" height="512.000000pt" viewBox="0 0 512.000000 512.000000"
 preserveAspectRatio="xMidYMid meet">
    <g transform="translate(0.000000,512.000000) scale(0.100000,-0.100000)"
fill="#000000" stroke="none">
        <path d="M609 5010 c-281 -69 -499 -281 -581 -567 l-23 -78 0 -1805 0 -1805
23 -78 c83 -288 301 -499 587 -568 78 -18 138 -19 1945 -19 1838 0 1866 0
1950 20 228 55 421 211 525 425 74 153 105 331 71 418 -61 161 -284 175 -363
22 -9 -16 -20 -64 -24 -107 -5 -42 -18 -102 -30 -133 -29 -78 -112 -166 -197
-207 l-67 -33 -1865 0 -1865 0 -67 33 c-84 41 -167 128 -200 209 l-23 58 -3
1073 -2 1072 2160 0 2160 0 0 -548 0 -548 22 -44 c13 -24 40 -58 61 -74 36
-29 45 -31 117 -31 72 0 81 2 117 31 21 16 48 50 61 75 l22 44 -2 1265 -3
1265 -23 75 c-87 282 -308 494 -582 560 -84 20 -111 20 -1955 19 -1790 0
-1873 -1 -1946 -19z m3883 -418 c84 -41 167 -128 200 -209 23 -58 23 -61 26
-550 l3 -493 -2161 0 -2161 0 3 493 c3 488 3 492 26 549 25 63 102 154 158
189 19 12 56 30 82 40 45 17 123 18 1902 16 l1855 -2 67 -33z"/>
        <path d="M2369 4177 c-58 -22 -96 -54 -118 -100 -64 -133 30 -287 175 -287
129 0 226 122 194 242 -30 113 -150 182 -251 145z"/>
        <path d="M3185 4175 c-51 -18 -110 -81 -126 -133 -36 -123 62 -252 192 -252
131 1 226 129 189 253 -16 54 -83 121 -135 136 -51 14 -71 13 -120 -4z"/>
        <path d="M4020 4179 c-157 -47 -192 -263 -58 -355 36 -25 50 -29 114 -29 66 0
76 3 111 31 21 17 48 48 60 70 41 70 24 185 -33 235 -52 46 -134 66 -194 48z"/>
        <path d="M2460 2514 c-473 -101 -735 -607 -545 -1049 l35 -79 -94 -96 c-74
-75 -96 -104 -106 -139 -34 -128 58 -251 189 -251 75 0 98 13 198 112 l91 91
74 -31 c94 -39 140 -51 239 -62 208 -24 432 51 590 198 362 334 317 916 -91
1192 -165 112 -388 156 -580 114z m314 -423 c128 -63 199 -178 200 -326 1 -69
-3 -89 -30 -145 -152 -322 -611 -267 -685 82 -30 140 42 301 168 375 70 41
121 53 205 50 62 -3 89 -10 142 -36z"/>
    </g>
</svg>